<?xml version="1.0" encoding="UTF-8"?>
<svg xmlns="http://www.w3.org/2000/svg" xmlns:xlink="http://www.w3.org/1999/xlink" width="12pt" height="12pt" viewBox="0 0 12 12" version="1.1">
<g id="surface1">
<path style=" stroke:none;fill-rule:nonzero;fill:rgb(40%,40%,40%);fill-opacity:1;" d="M 2.496094 1.996094 C 2.292969 1.996094 2.109375 2.117188 2.03125 2.308594 C 1.957031 2.496094 2 2.710938 2.148438 2.851562 L 5.292969 6 L 2.148438 9.148438 C 2.015625 9.273438 1.964844 9.457031 2.007812 9.632812 C 2.054688 9.808594 2.191406 9.945312 2.367188 9.992188 C 2.542969 10.035156 2.726562 9.984375 2.855469 9.851562 L 6 6.707031 L 9.148438 9.851562 C 9.273438 9.984375 9.457031 10.035156 9.632812 9.992188 C 9.808594 9.945312 9.945312 9.808594 9.992188 9.632812 C 10.035156 9.457031 9.984375 9.273438 9.851562 9.148438 L 6.707031 6 L 9.851562 2.851562 C 10 2.710938 10.046875 2.488281 9.964844 2.300781 C 9.886719 2.109375 9.695312 1.988281 9.492188 1.996094 C 9.359375 2 9.238281 2.054688 9.148438 2.148438 L 6 5.292969 L 2.851562 2.148438 C 2.757812 2.050781 2.628906 1.996094 2.496094 1.996094 Z M 2.496094 1.996094 "/>
</g>
</svg>
