<?xml version="1.0" encoding="UTF-8"?>
<!DOCTYPE svg PUBLIC "-//W3C//DTD SVG 1.0//EN" "http://www.w3.org/TR/2001/REC-SVG-20010904/DTD/svg10.dtd">
<!-- Creator: CorelDRAW X7 -->
<svg xmlns="http://www.w3.org/2000/svg" xml:space="preserve" width="210mm" height="297mm" version="1.0" style="shape-rendering:geometricPrecision; text-rendering:geometricPrecision; image-rendering:optimizeQuality; fill-rule:evenodd; clip-rule:evenodd"
viewBox="0 0 21000 29700"
 xmlns:xlink="http://www.w3.org/1999/xlink">
 <defs>
  <style type="text/css">
   <![CDATA[
    .fil0 {fill:#0066FF}
   ]]>
  </style>
 </defs>
 <g id="Слой_x0020_1">
  <metadata id="CorelCorpID_0Corel-Layer"/>
  <g id="_2533685864880">
   <path class="fil0" d="M10387 21231c-3857,0 -6995,-3138 -6995,-6995 0,-3856 3138,-6994 6995,-6994 3856,0 6994,3138 6994,6994 0,3857 -3138,6995 -6994,6995zm0 -15436c-4655,0 -8442,3787 -8442,8441 0,4655 3787,8442 8442,8442 4654,0 8441,-3787 8441,-8442 0,-4654 -3787,-8441 -8441,-8441z"/>
   <polygon class="fil0" points="11110,10257 9663,10257 9663,13513 6407,13513 6407,14960 9663,14960 9663,18216 11110,18216 11110,14960 14366,14960 14366,13513 11110,13513 "/>
  </g>
 </g>
</svg>
