<?xml version="1.0" encoding="UTF-8"?>
<!DOCTYPE svg PUBLIC "-//W3C//DTD SVG 1.0//EN" "http://www.w3.org/TR/2001/REC-SVG-20010904/DTD/svg10.dtd">
<!-- Creator: CorelDRAW X7 -->
<svg xmlns="http://www.w3.org/2000/svg" xml:space="preserve" width="210mm" height="297mm" version="1.0" style="shape-rendering:geometricPrecision; text-rendering:geometricPrecision; image-rendering:optimizeQuality; fill-rule:evenodd; clip-rule:evenodd"
viewBox="0 0 21000 29700"
 xmlns:xlink="http://www.w3.org/1999/xlink">
 <defs>
  <style type="text/css">
   <![CDATA[
    .fil0 {fill:#0066FF}
   ]]>
  </style>
 </defs>
 <g id="Слой_x0020_1">
  <metadata id="CorelCorpID_0Corel-Layer"/>
  <g id="_2533683529984">
   <polygon class="fil0" points="7405,15879 13900,15879 13900,14698 7405,14698 "/>
   <path class="fil0" d="M10652 20997c-3147,0 -5708,-2561 -5708,-5708 0,-3148 2561,-5708 5708,-5708 3148,0 5708,2560 5708,5708 0,3147 -2560,5708 -5708,5708zm0 -12597c-3798,0 -6889,3090 -6889,6889 0,3798 3091,6889 6889,6889 3799,0 6889,-3091 6889,-6889 0,-3799 -3090,-6889 -6889,-6889z"/>
  </g>
 </g>
</svg>
