<?xml version="1.0" encoding="UTF-8"?>
<!DOCTYPE svg PUBLIC "-//W3C//DTD SVG 1.0//EN" "http://www.w3.org/TR/2001/REC-SVG-20010904/DTD/svg10.dtd">
<!-- Creator: CorelDRAW X7 -->
<svg xmlns="http://www.w3.org/2000/svg" xml:space="preserve" width="210mm" height="297mm" version="1.0" style="shape-rendering:geometricPrecision; text-rendering:geometricPrecision; image-rendering:optimizeQuality; fill-rule:evenodd; clip-rule:evenodd"
viewBox="0 0 21000 29700"
 xmlns:xlink="http://www.w3.org/1999/xlink">
 <defs>
  <style type="text/css">
   <![CDATA[
    .fil0 {fill:#0066FF}
   ]]>
  </style>
 </defs>
 <g id="Слой_x0020_1">
  <metadata id="CorelCorpID_0Corel-Layer"/>
  <g id="_2533683551456">
   <path class="fil0" d="M16864 13244l0 4383c0,708 -576,1283 -1283,1283l-10662 0c-707,0 -1283,-575 -1283,-1283l0 -8048c0,-708 576,-1283 1283,-1283l6997 0 0 -1833 -6997 0c-1718,0 -3116,1398 -3116,3116l1 8048c0,1718 1397,3115 3115,3115l10662 0c1718,0 3116,-1397 3116,-3115l0 -4383 -1833 0z"/>
   <polygon class="fil0" points="9960,14053 10991,15085 16483,9592 18675,11784 18626,6458 13349,6458 15452,8561 "/>
  </g>
 </g>
</svg>
